<svg width="65" height="65" viewBox="0 0 65 65" fill="none" xmlns="http://www.w3.org/2000/svg">
<path d="M11.6165 39.4382L20.972 30.0828L28.749 37.8625L37.4308 29.1808L32.5 24.25H46.25V38L41.3193 33.0692L28.749 45.6395L20.972 37.8625L14.1658 44.666C17.2552 49.3159 21.9967 52.6174 27.4297 53.9014C32.8626 55.1855 38.5805 54.3562 43.4247 51.5814C48.2689 48.8067 51.8771 44.2941 53.5181 38.9581C55.1591 33.6221 54.7101 27.8619 52.2622 22.8446C49.8143 17.8273 45.5505 13.9282 40.3349 11.9375C35.1193 9.94687 29.3419 10.0134 24.1735 12.1238C19.0052 14.2341 14.8324 18.2304 12.5007 23.3028C10.1691 28.3752 9.85301 34.1443 11.6165 39.441V39.4382ZM7.38702 43.7227L7.35952 43.6952L7.37052 43.6842C5.80283 40.1643 4.99508 36.3533 5.00002 32.5C5.00002 17.3118 17.3118 5 32.5 5C47.6883 5 60 17.3118 60 32.5C60 47.6882 47.6883 60 32.5 60C21.3075 60 11.6825 53.3175 7.38702 43.7227V43.7227Z" fill="#070242"/>
</svg>
