<svg width="66" height="67" viewBox="0 0 66 67" fill="none" xmlns="http://www.w3.org/2000/svg">
<path d="M37.1831 66.1033H28.9202C28.4038 66.1033 27.9908 65.6903 27.8875 65.174L26.8547 56.3942C24.7892 55.8778 22.7233 55.0513 20.864 53.9152L13.9439 59.4924C13.5309 59.802 12.9112 59.802 12.6011 59.389L6.7138 53.5018C6.3008 53.0888 6.3008 52.5724 6.61043 52.1589L12.1877 45.2388C11.0515 43.3796 10.2251 41.3141 9.70864 39.2481L0.929863 38.2159C0.413491 38.2159 0 37.6995 0 37.1831V28.9202C0 28.4038 0.413002 27.9908 0.929374 27.8874L9.70865 26.9581C10.225 24.8925 11.0515 22.8267 12.1877 20.9673L6.61044 14.0473C6.30081 13.6343 6.30081 13.0145 6.71382 12.7044L12.6011 6.81715C13.0141 6.40415 13.5304 6.40415 13.9439 6.71378L20.864 12.291C22.7232 11.1549 24.7887 10.3285 26.8547 9.81198L27.8875 0.929863C27.8875 0.413491 28.4038 0 28.9202 0H37.1831C37.6995 0 38.1125 0.413002 38.2159 0.929374L39.1453 9.70865C41.2108 10.225 43.2767 11.0515 45.136 12.1877L52.0561 6.61044C52.4691 6.30081 53.0888 6.30081 53.3989 6.71382L59.2862 12.6011C59.6992 13.0141 59.6992 13.5304 59.3895 13.9439L53.8123 20.864C54.9484 22.7232 55.7749 24.7887 56.2913 26.8547L65.0706 27.7841C65.587 27.8875 66 28.3005 66 28.8168V37.1831C66 37.6995 65.587 38.1125 65.0706 38.2159L56.3942 39.2486C55.8778 41.3141 55.0513 43.38 53.9152 45.2393L59.4924 52.1594C59.802 52.5724 59.802 53.1922 59.389 53.5023L53.5018 59.3895C53.0888 59.8025 52.5724 59.8025 52.1589 59.4929L45.2388 53.9157C43.3796 55.0518 41.3141 55.8782 39.2481 56.3947L38.2159 65.1735C38.2159 65.6898 37.6995 66.1033 37.1831 66.1033L37.1831 66.1033ZM29.8496 64.0373H36.3566L37.286 55.4647C37.286 55.0517 37.699 54.6383 38.1125 54.5354C40.488 54.019 42.7604 53.0892 44.8262 51.7468C45.2393 51.5401 45.6527 51.5401 46.0657 51.8502L52.7795 57.2211L57.3239 52.6767L51.953 45.9629C51.6434 45.6533 51.6434 45.1364 51.8496 44.7234C53.1925 42.6579 54.1218 40.3852 54.6382 38.0097C54.7415 37.5967 55.0512 37.2866 55.5675 37.1832L64.1401 36.2538V29.7468L55.4647 28.9203C55.0517 28.9203 54.6382 28.5073 54.5353 28.0938C54.0189 25.7182 53.0891 23.4459 51.7468 21.38C51.54 20.967 51.54 20.5535 51.8501 20.1405L57.2211 13.4268L52.6756 8.88288L45.9619 14.2538C45.6522 14.5634 45.1354 14.5634 44.7224 14.3572C42.6569 13.0143 40.3842 12.085 38.0086 11.5686C37.5956 11.4652 37.2855 11.1556 37.1822 10.6392L36.2538 2.06628H29.7467L28.9202 10.6389C28.9202 11.0519 28.5072 11.4653 28.0937 11.5682C25.7182 12.0846 23.4459 13.0144 21.38 14.3568C20.967 14.5635 20.5535 14.5635 20.1405 14.2534L13.4277 8.88301L8.88282 13.4279L14.2537 20.1417C14.5634 20.4513 14.5634 20.9682 14.3571 21.3812C13.0143 23.4467 12.0849 25.7194 11.5686 28.0949C11.4652 28.5079 11.1556 28.818 10.6392 28.9214L2.06622 29.8498V36.3569L10.6388 37.2862C11.0518 37.2862 11.4653 37.6992 11.5682 38.1127C12.0846 40.4883 13.0144 42.7606 14.3567 44.8265C14.5635 45.2395 14.5635 45.653 14.2534 46.066L8.88295 52.6759L13.4274 57.2203L20.1411 51.8494C20.4507 51.5397 20.9676 51.5397 21.3806 51.746C23.4461 53.0889 25.7188 54.0182 28.0944 54.5345C28.5074 54.6379 28.8175 54.9475 28.9208 55.4639L29.8496 64.0373Z" fill="#1672DE"/>
</svg>
